<svg id="Capa_6" data-name="Capa 6" xmlns="http://www.w3.org/2000/svg" viewBox="0 0 881.89 881.89"><defs><style>.cls-1{fill:#fff;}</style></defs><title>icono.premia</title><path class="cls-1" d="M500,59.05c-243.53,0-440.95,197.42-440.95,441S256.47,941,500,941,941,743.53,941,500,743.53,59.05,500,59.05ZM799.32,799.32a421.88,421.88,0,1,1,90.73-134.55A421.8,421.8,0,0,1,799.32,799.32Z" transform="translate(-59.05 -59.05)"/><path class="cls-1" d="M873.81,342.11A407.16,407.16,0,1,0,905.67,500,404.35,404.35,0,0,0,873.81,342.11ZM795.29,433H684.69s-85.56-18.78-100.17-119c0,0-23,124.17-124.17,124.17,0,0,115.82,44.87,115.82,88.69V804.44H421.74V433h-217V284.8H795.29Z" transform="translate(-59.05 -59.05)"/></svg>