<svg id="CLOSE" xmlns="http://www.w3.org/2000/svg" viewBox="0 0 870.11 870.32"><defs><style>.cls-1{fill:#fff;}</style></defs><title>icono_close</title><path class="cls-1" d="M500.21,548.83c-4.72,6.38-6.71,9.91-9.48,12.67q-179,179.24-358.24,358.33c-15.28,15.28-32.43,18.68-48.35,9.73A37.52,37.52,0,0,1,72.74,874a93.53,93.53,0,0,1,8.1-8.69Q259.27,686.81,437.78,508.43c2.77-2.77,6.48-4.59,10.16-7.13-4.54-4.77-6.92-7.39-9.43-9.9Q259.73,312.6,80.88,133.86c-8.19-8.18-14.87-16.86-15.21-29-.45-16.1,6.54-28.08,20.74-35.49,13.71-7.15,29.7-4.86,41.52,5.53,3.47,3,6.67,6.42,9.94,9.69Q315.27,262,492.64,439.38c2.09,2.1,3.8,4.58,8.47,10.29,3-4.92,4.44-9,7.19-11.72q179-179.29,358.15-358.42c7.94-8,16.45-14.23,28.21-14.65,16.1-.58,28.37,6,35.68,20.3s5.36,28.18-4.43,40.83a95.06,95.06,0,0,1-8.2,8.61Q740,312.37,562.21,490.08c-2.8,2.8-6,5.2-9.86,8.53,3.51,3.69,6.08,6.5,8.77,9.19Q740.25,687,919.46,866c9.27,9.25,16.23,19.1,15.55,32.85-.73,14.88-7.79,26-21,32.28-13.59,6.47-27.05,5.08-39.22-4.1-3.67-2.77-6.81-6.26-10.08-9.53Q686.57,739.45,508.55,561.28C505.8,558.52,504.1,554.71,500.21,548.83Z" transform="translate(-64.95 -64.84)"/></svg>