<svg id="Capa_2" data-name="Capa 2" xmlns="http://www.w3.org/2000/svg" viewBox="0 0 648.92 932.18"><defs><style>.cls-1{fill:#0e6729;}</style></defs><title>icono-login</title><path class="cls-1" d="M824.22,451.69c-.05-23.16-15.18-37.6-38.28-38.31-11.74-.35-23.5-.06-37-.06,0-44.29.11-86.47,0-128.65-.12-36.84-7-72.43-23-105.66C648.59,19.32,449.78-15.31,323.09,109c-47.87,47-70.71,105-71.76,171.7-.33,21.25,10.6,36.69,28.82,42.74,17.26,5.72,39.21.32,47.64-14.94,5.77-10.47,8.52-23.48,9.44-35.6,6.21-82.62,74.22-150.69,154.32-153.47,85.25-3,160.52,58.15,168.71,142.5,4.75,48.94.87,98.72.87,151.45H637.92l-137.54,0-.38-.5-.39.5q-141.93,0-283.86.22c-26.29.05-40,13.63-40.05,39.77q-.34,193.2,0,386.41c0,25,14,39.1,38.77,39.13l202,72.61a246.78,246.78,0,0,0,167,0L785.17,879c24.46,0,39.07-14.58,39.12-39.15Q824.67,645.77,824.22,451.69ZM529,808.25a29,29,0,0,1-29,29h0a29,29,0,0,1-29-29V655.06a29,29,0,0,1,29-29h0a29,29,0,0,1,29,29Z" transform="translate(-175.54 -33.91)"/></svg>