<svg id="Capa_8" data-name="Capa 8" xmlns="http://www.w3.org/2000/svg" viewBox="0 0 835.73 819.94"><defs><style>.cls-1{fill:#fff;}</style></defs><title>icono_gps</title><path class="cls-1" d="M163.62,850H836.45c-2-3.61-3.45-6.5-5.07-9.33-28.82-50.45-57.9-100.76-86.22-151.49A44.44,44.44,0,0,1,740,665.47c1-12.58,11.78-21.9,24-24,11.9-2,24.12,3.54,30.76,14.95,15.47,26.59,30.59,53.38,45.86,80.08q35.63,62.31,71.24,124.63c14.73,25.91,1.42,48.81-28.3,48.81Q500,910,116.46,910c-29.73,0-43-23-28.27-48.83q58-101.6,116.13-203.11c7.22-12.61,19.24-18.67,31.74-16.52,12.26,2.12,23,11.41,24,24a44.47,44.47,0,0,1-5.2,23.76C226.7,739.73,197.78,789.78,169.12,840,167.46,842.87,165.91,845.84,163.62,850Z" transform="translate(-82.14 -90.03)"/><path class="cls-1" d="M482.4,90h35.18a39.92,39.92,0,0,0,5.23,1.11c43.79,3.58,84.3,17.13,120.59,41.77,68.88,46.76,107.51,111.9,115.18,194.9,3.73,40.28-.29,80.28-8.86,119.59-31,142.28-111.67,250.35-230.91,331.19a30.44,30.44,0,0,1-34.52.25c-124.1-80.56-205.36-191.25-235.12-337.42-9.22-45.24-12.51-91-5-137.08,16.14-99,94-183.11,191.76-206.21C451.21,94.52,466.9,92.68,482.4,90Zm17.85,144.45a115.33,115.33,0,1,0,115,115.41A115.33,115.33,0,0,0,500.25,234.48Z" transform="translate(-82.14 -90.03)"/></svg>