<svg id="Capa_4" data-name="Capa 4" xmlns="http://www.w3.org/2000/svg" viewBox="0 0 1000 1000"><defs><style>.cls-1{fill:#fff;}.cls-2{fill:#046241;}.cls-3{fill:#b2282f;}</style></defs><title>icono.imagotipo</title><rect class="cls-1" width="1000" height="1000"/><path class="cls-2" d="M954.19,616.35a19.93,19.93,0,0,0-.34,2.3,122.65,122.65,0,0,1-4.29,27.59,120.57,120.57,0,0,1-29.74,53.1,153.11,153.11,0,0,1-36.83,28,239.22,239.22,0,0,1-65,24.47,284.63,284.63,0,0,1-31.41,5.11c-8,.85-16,1.55-24.06,1.68-9.22.15-18.45.34-27.66.12-8.76-.22-17.52-.88-26.26-1.47-5.35-.35-10.69-.93-16-1.4l-1.14-.12c.6-.34.91-.53,1.23-.68a135.17,135.17,0,0,1,14-5.23,156.33,156.33,0,0,0,51-26.29,138.32,138.32,0,0,0,45.37-63.33,152.39,152.39,0,0,0,7.81-33.54,160.29,160.29,0,0,0,1.14-23.58,176.51,176.51,0,0,0-14-63.94,323.65,323.65,0,0,0-61-94.62,390.49,390.49,0,0,0-65-56.07C651,374,629.4,360.59,607.3,348.11c-23.59-13.33-47.36-26.35-71-39.51-6.3-3.5-12.66-6.9-18.89-10.53a34.44,34.44,0,0,0-19.11-4.57,24.63,24.63,0,0,0-8.78,1.95q-23.62,10-46.69,21.19a704.66,704.66,0,0,0-69.37,38.66A548.16,548.16,0,0,0,298.71,412a468.46,468.46,0,0,0-67.8,76.32,256.74,256.74,0,0,0-28,49.87,181.77,181.77,0,0,0-11.16,37.85,137,137,0,0,0-2.2,19.47c-.16,5.19-.38,10.4-.14,15.58,1,22.68,5.89,44.48,15.7,65a127.73,127.73,0,0,0,24.19,34.61c12.68,12.94,27.53,22.73,43.86,30.4,7,3.31,14.32,6,21.58,8.74A76.32,76.32,0,0,1,307.56,756c.57.35,1.12.72,1.88,1.22a4.4,4.4,0,0,1-.87.25c-5,.27-9.93.56-14.89.76-7.26.29-14.52.5-21.78.76a5,5,0,0,0-1.09.28H248.34a9.15,9.15,0,0,0-1.44-.28c-5.58-.25-11.16-.43-16.74-.72-8.15-.42-16.26-1.26-24.35-2.34a276.41,276.41,0,0,1-32.87-6.38,215.44,215.44,0,0,1-72.48-33.79,130.28,130.28,0,0,1-26.64-25.1c-18.63-23.73-27.3-50.93-28-80.88-.06-2.84,0-5.7.19-8.54.31-4.68.58-9.37,1.18-14a164.66,164.66,0,0,1,11.16-41.63,287.5,287.5,0,0,1,33.7-59.72,382.39,382.39,0,0,1,50.07-55.62,635.86,635.86,0,0,1,77-60.56,724.31,724.31,0,0,1,92-52.32,897.91,897.91,0,0,1,100.66-40.52c4.71-1.58,9.36-3.36,14-5.07.55-.2,1.26-.28,1.38-1,.23-1.42.43-2.85.67-4.4L346.1,244.91c.2-1.52.38-2.82.56-4.16.74,0,1.3,0,1.84,0,4.63.27,9.26.6,13.89.81,8.2.38,16.4.68,24.61,1,6.7.28,13.4.44,20.09.88,9.42.63,18.83,1.31,28.22,2.26,7.05.71,14.09,1.69,21.07,2.91A207.38,207.38,0,0,0,483.46,252a227.15,227.15,0,0,0,23.63-.27c3.62-.23,7.25-.45,10.86-.79,6.06-.57,12.12-1.23,18.17-1.86,5.72-.6,11.44-1.27,17.17-1.8q9.42-.87,18.87-1.53c5.18-.36,10.37-.6,15.56-.81,10-.42,20-.87,30-1.13,5.75-.14,11.51,0,17.27.13,4.74.1,9.49.3,14.23.48,1.58.06,3.15.23,4.72.36l0,.25-86.79,23v.37c.61.25,1.21.52,1.83.75q19.18,7,38.38,14.06a938.13,938.13,0,0,1,109.86,48,676.81,676.81,0,0,1,71.35,42.6,541.83,541.83,0,0,1,81.74,68.24c7,7.2,13.85,14.6,20.52,22.12a326.75,326.75,0,0,1,35,46.78c11.78,19.4,20.62,40,25.07,62.33a137.41,137.41,0,0,1,2.9,23.58,23.53,23.53,0,0,0,.34,2.64Z" transform="translate(0 0)"/><path class="cls-3" d="M500.16,720.08a149.85,149.85,0,0,1-64-14.66,143,143,0,0,1-36.95-25.53,146.28,146.28,0,0,1-41.54-71.66,136.8,136.8,0,0,1-4-25c-.28-4.57-.57-9.16-.51-13.73a147.09,147.09,0,0,1,15.75-65.21,142.13,142.13,0,0,1,28.34-38.41,146,146,0,0,1,61.22-35.36,157.34,157.34,0,0,1,51-5.95,142.55,142.55,0,0,1,55.31,14.09,144.63,144.63,0,0,1,40.46,28.89,147.43,147.43,0,0,1,38.18,66.73,135,135,0,0,1,4.42,26.4c.29,4.68.58,9.37.5,14.06A148.06,148.06,0,0,1,536.64,715.43a132.81,132.81,0,0,1-23.61,3.9C508.75,719.64,504.45,719.83,500.16,720.08Z" transform="translate(0 0)"/></svg>