<svg id="Capa_5" data-name="Capa 5" xmlns="http://www.w3.org/2000/svg" viewBox="0 0 861.94 903.19"><defs><style>.cls-1{fill:#fff;}</style></defs><title>icono_cash</title><path class="cls-1" d="M488.77,493.36q50.44,0,100.9,0c21.41,0,35.3,14.47,34.72,35.85-1.1,40.62-35.27,79.41-78.11,84.92-24.93,3.2-50.47,1.64-75.73,2.27-19.87.5-32.05,14-30.55,33.77,1.13,15,11.22,27.29,26.07,27.19,44.75-.31,89.88,1.13,134.15-4.12,44.71-5.29,81.18-29.51,108.38-66.41,18.22-24.72,35.71-50.09,60.69-69,38.88-29.42,82.69-43.93,131.28-44.47,11.8-.13,21.86,4.41,27.38,14.68,5.31,9.86,3.12,19.84-2.66,29.91-28.48,49.69-55.81,100-84.58,149.56-42,72.22-103.76,118.66-185.91,135-28.32,5.63-57.88,5.53-86.92,6.92Q378.16,838.52,217.8,940a121.09,121.09,0,0,1-13.3,7.62c-16.2,7.56-28.59,4.4-37.94-11q-47.09-77.55-93.43-155.55c-5.75-9.63-5.39-19.68.67-29.11,31.16-48.47,60.93-97.91,94-145C213,542.66,277.49,507.41,354.53,497.87c44.3-5.49,89.42-4.4,134.17-6.27Z" transform="translate(-69.03 -48.41)"/><path class="cls-1" d="M476.08,48.41h41.83V83.82L581.55,98c-4.71,18.42-8.71,34.06-12.58,49.21-15.6-4.08-30.14-9.16-45.09-11.37-11.48-1.69-23.62-.7-35.23.85-10.12,1.35-17.6,7.69-19.58,18.52s4.17,18.16,12.65,22.68c12.94,6.91,26.62,12.4,39.92,18.65,12.71,6,25.89,11.2,37.88,18.4,46,27.58,43.7,94.43,3,122.91-11.51,8.05-25.63,12.62-39,17.67-5.35,2-7.76,3.78-7.53,9.74.46,11.77.14,23.56.14,35.92H474c0-10.44-.43-20.89.15-31.29.41-7.39-2.23-9.18-9.47-10.55-19.07-3.58-37.84-8.77-56.69-13.49-6.65-1.67-7.87-5.77-5.91-12.35,4-13.44,7.16-27.15,10.41-39.75,17.33,5.09,33.77,11.68,50.82,14.38,13.89,2.2,28.66.91,42.75-1,10.11-1.38,18.23-8.1,20.15-19.35,2-11.75-2.68-21.1-12.7-26.82s-20.62-10.06-31.06-14.84c-14.79-6.79-30.34-12.23-44.37-20.32-51.26-29.55-44.12-98,2.44-123.51A140.49,140.49,0,0,1,468.85,91c5.92-1.72,7.53-4.23,7.33-9.91C475.81,70.53,476.08,60,476.08,48.41Z" transform="translate(-69.03 -48.41)"/></svg>