<svg id="Capa_7" data-name="Capa 7" xmlns="http://www.w3.org/2000/svg" viewBox="0 0 835.73 835.04"><defs><style>.cls-1{fill:#04c22e;}.cls-2{fill:#ccf16c;}.cls-3{fill:#fd029b;}.cls-4{fill:#8945cd;}.cls-5{fill:#fdfefd;}</style></defs><title>icono.baz</title><path class="cls-1" d="M503.53,82.49c230,1.87,416.15,190.39,414.32,419.55C916,734.15,728.12,919.19,496,917.51,262.69,915.83,80.1,727.71,82.15,491.16,84.11,264.6,273.81,80.63,503.53,82.49Zm-5.07,725.42c40,.36,79.23-6.36,118.2-13.78C756.3,767.55,853.3,676.93,869.51,549c13.88-109.51-21.92-207.43-92.23-291.44-57.75-69-132.49-106.42-222.8-86.15C359.4,215.23,228,335.91,162.45,523.31c-31.5,90-1,161.71,77.76,215.28C318,791.49,407.17,804.28,498.46,807.91Z" transform="translate(-82.14 -82.48)"/><path class="cls-2" d="M498.46,807.91c-91.29-3.63-180.45-16.42-258.25-69.32C161.43,685,131,613.32,162.45,523.31c65.57-187.4,197-308.08,392-351.86,90.31-20.27,165,17.16,222.8,86.15,70.31,84,106.11,181.93,92.23,291.44C853.3,676.93,756.3,767.55,616.66,794.13,577.69,801.55,538.49,808.27,498.46,807.91Zm39.76-76.59c79.85.7,140.58-12.82,180.84-37,36.16-21.69,54.22-53,54.76-95.48,1.55-123.42-116.18-272.36-239.17-301.95-27.2-6.54-54.16-8.48-81.8-1.89C356.46,318,280.18,416.61,274.6,525c-4,78.28,30.4,133.63,99.18,168.26C429,721,488.28,731.86,538.22,731.32Z" transform="translate(-82.14 -82.48)"/><path class="cls-3" d="M538.22,731.32c-49.94.54-109.23-10.31-164.44-38.1C305,658.59,270.57,603.24,274.6,525,280.18,416.61,356.46,318,452.85,295c27.64-6.59,54.6-4.65,81.8,1.89,123,29.59,240.72,178.53,239.17,302-.54,42.45-18.6,73.79-54.76,95.48C678.8,718.5,618.07,732,538.22,731.32Zm-34.06-107.6c107.05,1.65,161.4-55.7,149.29-157.5-7-58.94-44.53-93.07-103.27-87.93-70.83,6.19-135.48,31.65-189.62,78.5C313.62,497.41,318.47,548.11,370,584,410.37,612.05,455.31,624.39,504.16,623.72Z" transform="translate(-82.14 -82.48)"/><path class="cls-4" d="M504.17,623.7c-48.86.69-93.8-11.65-134.19-39.74-51.51-35.85-56.36-86.55-9.42-127.17,54.14-46.85,118.79-72.31,189.62-78.5,58.74-5.14,96.26,29,103.27,87.93C665.56,568,611.21,625.37,504.17,623.7Zm57.79-122c-.24-35.45-28-63.71-62.52-63.65-33,.06-63.68,30.73-63.82,63.88-.14,33.71,29.42,62.58,64.07,62.58C535.9,564.5,562.2,538,562,501.69Z" transform="translate(-82.14 -82.48)"/><path class="cls-5" d="M562,501.69c.24,36.28-26.06,62.81-62.27,62.81-34.65,0-64.21-28.87-64.07-62.58.14-33.15,30.78-63.82,63.82-63.88C534,438,561.72,466.24,562,501.69Z" transform="translate(-82.14 -82.48)"/></svg>