<svg id="Capa_1" data-name="Capa 1" xmlns="http://www.w3.org/2000/svg" viewBox="0 0 869.83 654.48"><defs><style>.cls-1{fill:#0e6729;}</style></defs><title>icono_bars</title><path class="cls-1" d="M933.43,516A63.62,63.62,0,0,1,929,526.55c-8.69,15.31-21.81,23.9-38.26,26.93a69.4,69.4,0,0,1-12.63,1.06q-324.55,0-649.12,0c-31.17,0-55.13-22.32-56.21-52.08-1.16-32,23-56.93,55.57-56.95q225.69-.08,451.39,0H869.61c35.63,0,49.78,7.36,62.41,35.92Z" transform="translate(-63.6 -172.76)"/><path class="cls-1" d="M63.6,222.27a22.66,22.66,0,0,1,2-9.38c3.21-7.07,6.06-14.44,10.68-20.43C87,178.63,102,172.75,119.55,172.76q310.08.13,620.16.06c10.79,0,21.58-.11,32.37,0C803,173.21,827,197,827,227.24s-23.88,54.49-54.76,54.56c-84.9.2-169.8.08-254.7.08H124.85c-32.2,0-50.31-13.51-59.9-44.65a.36.36,0,0,0,0-.11,24.92,24.92,0,0,1-1.31-7.64Z" transform="translate(-63.6 -172.76)"/><path class="cls-1" d="M63.6,766.79a23.27,23.27,0,0,1,1.52-8.2c2.72-7.19,5.09-14.71,9-20.81C83,724,95.41,718.07,110,718.08q255.83.13,511.67.06c9.89,0,19.79-.11,29.68,0,25.67.36,45.54,24.14,45.57,54.41s-19.8,54.48-45.43,54.55c-71.38.2-142.76.07-214.14.07h-323c-26.73,0-41.63-13.41-49.68-44.66a6.13,6.13,0,0,0-.18-.61,20.81,20.81,0,0,1-.93-6.47Z" transform="translate(-63.6 -172.76)"/></svg>