<svg id="Capa_9" data-name="Capa 9" xmlns="http://www.w3.org/2000/svg" viewBox="0 0 887.62 887.67"><defs><style>.cls-1{fill:#fff;}</style></defs><title>icono.ayuda</title><path class="cls-1" d="M56.19,499.36C57.4,253.87,257,54.85,500.62,56.17,746.3,57.51,945.05,256.82,943.8,500.6,942.55,746.18,743,945.18,499.38,943.83,253.73,942.46,55,743.15,56.19,499.36ZM500.11,137c-200.32-.09-363,162.51-363.13,362.88S299.54,862.92,499.88,863,862.94,700.46,863,500.1,700.52,137.07,500.11,137Z" transform="translate(-56.19 -56.17)"/><path class="cls-1" d="M658.07,416.55c.34,35.16-12.69,65.14-36,90.78C591,541.48,552,563.4,509,578.57c-20.89,7.38-43.24-4.54-50.31-25-7.14-20.71,3.45-41.54,23.85-51.24,21.49-10.21,43.13-20.73,62.79-34,22.79-15.33,38-36.17,30.24-66.46-7.91-30.95-26.83-51.76-57.61-60.4-40.31-11.32-80.2,9.41-96.61,49.18-8.73,21.15-25.17,31.2-45.77,28-24.06-3.74-39.67-29.65-30.71-53,24.31-63.55,70.86-101,138.33-106.7s119.7,23.37,154.38,81.89C651.46,364.24,656.76,387.07,658.07,416.55Z" transform="translate(-56.19 -56.17)"/><path class="cls-1" d="M459.89,701.46A40.41,40.41,0,1,1,499.75,742,40.3,40.3,0,0,1,459.89,701.46Z" transform="translate(-56.19 -56.17)"/></svg>