<svg id="Capa_1" data-name="Capa 1" xmlns="http://www.w3.org/2000/svg" xmlns:xlink="http://www.w3.org/1999/xlink" viewBox="0 0 1491.61 1402.99"><defs><style>.cls-1{fill:none;}.cls-2,.cls-7{fill:#17a64e;}.cls-3,.cls-8{fill:#268251;}.cls-4{fill:#f4faec;}.cls-5{opacity:0.35;}.cls-6{clip-path:url(#clip-path);}.cls-7,.cls-8{opacity:0.5;}.cls-9{font-size:27.93px;}.cls-15,.cls-21,.cls-28,.cls-9{fill:#6c7385;font-family:Verdana-Bold, Verdana;font-weight:700;}.cls-10{font-size:26.99px;}.cls-10,.cls-16,.cls-22{font-family:Verdana;font-weight:400;}.cls-11{letter-spacing:-0.1em;}.cls-12{letter-spacing:-0.02em;}.cls-13{fill:#278352;}.cls-14{clip-path:url(#clip-path-2);}.cls-15{font-size:27.9px;}.cls-16{font-size:27.95px;}.cls-17{letter-spacing:-0.02em;}.cls-18{letter-spacing:-0.01em;}.cls-19{letter-spacing:-0.01em;}.cls-20{clip-path:url(#clip-path-3);}.cls-21{font-size:27.84px;}.cls-23{letter-spacing:-0.01em;}.cls-24{clip-path:url(#clip-path-4);}.cls-25{letter-spacing:-0.01em;}.cls-26{letter-spacing:-0.02em;}.cls-27{clip-path:url(#clip-path-5);}.cls-28{font-size:27.9px;}.cls-29{clip-path:url(#clip-path-6);}.cls-30{fill:#84cda2;}.cls-31{fill:#fff;}</style><clipPath id="clip-path" transform="translate(0)"><rect class="cls-1" x="182.86" y="95.03" width="264.14" height="548.14" transform="translate(684.03 54.17) rotate(90)"/></clipPath><clipPath id="clip-path-2" transform="translate(0)"><rect class="cls-1" x="797.21" y="95.38" width="263.91" height="547.67" transform="translate(1298.38 -559.95) rotate(90)"/></clipPath><clipPath id="clip-path-3" transform="translate(0)"><rect class="cls-1" x="182.43" y="407.72" width="263.33" height="546.47" transform="translate(995.06 366.86) rotate(90)"/></clipPath><clipPath id="clip-path-4" transform="translate(0)"><rect class="cls-1" x="797.21" y="406.68" width="263.91" height="547.67" transform="translate(1609.68 -248.66) rotate(90)"/></clipPath><clipPath id="clip-path-5" transform="translate(0)"><rect class="cls-1" x="183.21" y="718.94" width="263.91" height="547.67" transform="translate(1307.94 677.6) rotate(90)"/></clipPath><clipPath id="clip-path-6" transform="translate(0)"><rect class="cls-1" x="797.21" y="718.94" width="263.91" height="547.67" transform="translate(1921.94 63.6) rotate(90)"/></clipPath></defs><title>img.menu</title><rect class="cls-2" width="1242" height="1175"/><rect class="cls-3" y="191" width="1242" height="984"/><rect class="cls-4" x="182.86" y="95.03" width="264.14" height="548.14" transform="translate(684.03 54.17) rotate(90)"/><g class="cls-5"><g class="cls-6"><ellipse class="cls-7" cx="588.98" cy="501.26" rx="288.88" ry="278.41"/><ellipse class="cls-8" cx="588.98" cy="368.95" rx="153.41" ry="147.85"/></g></g><text class="cls-9" transform="translate(101.56 327.47) scale(1.04 1)">Crédito en Efectivo<tspan class="cls-10"><tspan class="cls-11" x="0" y="32.38">T</tspan><tspan class="cls-12" x="13.99" y="32.38">r</tspan><tspan x="25.04" y="32.38">amítalo aquí y págalo fácil</tspan><tspan x="0" y="64.76">desde al App de Banco</tspan><tspan x="0" y="97.15">Azteca.</tspan></tspan></text><path class="cls-13" d="M570.86,369.14l-4.12,5.73c-1.54,2.14-3.07,4.29-4.62,6.42a5.17,5.17,0,0,1-3.11,2.16,2.66,2.66,0,0,1-2.93-1.16,3.15,3.15,0,0,1,.08-3.79c2.16-2.92,4.31-5.85,6.49-8.76a.86.86,0,0,0,0-1.26c-2.27-3-4.48-6.05-6.76-9.05a2.46,2.46,0,0,1-.34-2.18,2.91,2.91,0,0,1,4.65-2,6.37,6.37,0,0,1,1.8,1.58c2.93,4,5.8,8,8.69,12.06A1.82,1.82,0,0,1,570.86,369.14Z" transform="translate(0)"/><rect class="cls-4" x="797.21" y="95.38" width="263.91" height="547.67" transform="translate(1298.38 -559.95) rotate(90)"/><g class="cls-5"><g class="cls-14"><ellipse class="cls-7" cx="1202.98" cy="501.26" rx="288.63" ry="278.17"/><ellipse class="cls-8" cx="1202.98" cy="369.07" rx="153.27" ry="147.72"/></g></g><text class="cls-15" transform="translate(715.98 313.67) scale(1.04 1)">Tarjeta de Crédito Oro<tspan class="cls-16"><tspan x="0" y="33.54">Una tarjeta de crédito que </tspan><tspan x="0" y="67.08">te permite comp</tspan><tspan class="cls-17" x="231.95" y="67.08">r</tspan><tspan x="243.38" y="67.08">ar con </tspan><tspan x="0" y="100.62">m</tspan><tspan class="cls-18" x="27.18" y="100.62">a</tspan><tspan class="cls-19" x="43.75" y="100.62">y</tspan><tspan x="60.05" y="100.62">ores facilidades y </tspan><tspan x="0" y="134.16">beneficios.</tspan></tspan></text><path class="cls-13" d="M1184.88,369.25l-4.12,5.73c-1.54,2.14-3.07,4.29-4.62,6.41a5.14,5.14,0,0,1-3.11,2.16,2.64,2.64,0,0,1-2.92-1.16,3.16,3.16,0,0,1,.07-3.79c2.17-2.92,4.31-5.84,6.5-8.75a.86.86,0,0,0,0-1.26c-2.27-3-4.47-6-6.75-9a2.46,2.46,0,0,1-.34-2.18c.46-2.34,2.55-3.26,4.65-2a6.22,6.22,0,0,1,1.8,1.58c2.92,4,5.79,8,8.68,12C1184.78,369.06,1184.81,369.14,1184.88,369.25Z" transform="translate(0)"/><rect class="cls-4" x="182.43" y="407.72" width="263.33" height="546.47" transform="translate(995.06 366.86) rotate(90)"/><g class="cls-5"><g class="cls-20"><ellipse class="cls-7" cx="587.31" cy="812.72" rx="288" ry="277.57"/><ellipse class="cls-8" cx="587.31" cy="680.81" rx="152.94" ry="147.4"/></g></g><text class="cls-21" transform="translate(101.38 646.2) scale(1.04 1)">Plazo Azteca<tspan class="cls-22"><tspan x="0" y="33.41">I</tspan><tspan class="cls-23" x="11.72" y="33.41">n</tspan><tspan x="29.07" y="33.41">vierte y obtén mejores</tspan><tspan x="0" y="66.82">rendimientos</tspan></tspan></text><path class="cls-13" d="M569.25,681l-4.11,5.72c-1.53,2.13-3.06,4.28-4.61,6.4a5.2,5.2,0,0,1-3.1,2.16,2.68,2.68,0,0,1-2.92-1.16,3.16,3.16,0,0,1,.08-3.78c2.16-2.92,4.3-5.84,6.48-8.74a.85.85,0,0,0,0-1.25c-2.26-3-4.46-6-6.74-9a2.52,2.52,0,0,1-.34-2.18,2.9,2.9,0,0,1,4.64-2,6.22,6.22,0,0,1,1.8,1.58c2.92,4,5.78,8,8.66,12C569.15,680.8,569.18,680.88,569.25,681Z" transform="translate(0)"/><rect class="cls-4" x="797.21" y="406.68" width="263.91" height="547.67" transform="translate(1609.68 -248.66) rotate(90)"/><g class="cls-5"><g class="cls-24"><ellipse class="cls-7" cx="1202.98" cy="812.56" rx="288.63" ry="278.17"/><ellipse class="cls-8" cx="1202.98" cy="680.36" rx="153.27" ry="147.72"/></g></g><text class="cls-15" transform="translate(715.98 638.91) scale(1.04 1)">Abre tu cuenta<tspan class="cls-22"><tspan x="0" y="33.49">Hazlo desde la Ap</tspan><tspan class="cls-25" x="249.85" y="33.49">p</tspan><tspan x="266.83" y="33.49">, es fácil </tspan><tspan x="0" y="66.97">y </tspan><tspan class="cls-26" x="26.32" y="66.97">r</tspan><tspan x="37.74" y="66.97">apido</tspan></tspan></text><path class="cls-13" d="M1184.88,680.55l-4.12,5.72c-1.54,2.14-3.07,4.29-4.62,6.42a5.22,5.22,0,0,1-3.11,2.16,2.66,2.66,0,0,1-2.92-1.16,3.16,3.16,0,0,1,.07-3.79c2.17-2.92,4.31-5.85,6.5-8.75a.86.86,0,0,0,0-1.26c-2.27-3-4.47-6-6.75-9a2.48,2.48,0,0,1-.34-2.19,2.9,2.9,0,0,1,4.65-2,6.37,6.37,0,0,1,1.8,1.58c2.92,4,5.79,8,8.68,12C1184.78,680.35,1184.81,680.43,1184.88,680.55Z" transform="translate(0)"/><rect class="cls-4" x="183.21" y="718.94" width="263.91" height="547.67" transform="translate(1307.94 677.6) rotate(90)"/><g class="cls-5"><g class="cls-27"><ellipse class="cls-7" cx="588.98" cy="1124.82" rx="288.63" ry="278.17"/><ellipse class="cls-8" cx="588.98" cy="992.62" rx="153.27" ry="147.72"/></g></g><text class="cls-28" transform="translate(101.98 951.17) scale(1.04 1)">Pasa tu Nómina a Banco <tspan x="0" y="33.49">Azteca</tspan><tspan class="cls-22"><tspan x="0" y="66.97">Cámbiate con nosotros y</tspan><tspan x="0" y="100.46">obtén mejores beneficios</tspan></tspan></text><path class="cls-13" d="M570.88,992.8l-4.12,5.73c-1.54,2.14-3.07,4.29-4.62,6.42a5.22,5.22,0,0,1-3.11,2.16,2.67,2.67,0,0,1-2.92-1.16,3.16,3.16,0,0,1,.07-3.79c2.17-2.92,4.31-5.85,6.5-8.75a.86.86,0,0,0,0-1.26c-2.27-3-4.47-6-6.75-9a2.48,2.48,0,0,1-.34-2.19c.46-2.34,2.55-3.26,4.65-2a6.22,6.22,0,0,1,1.8,1.58c2.92,4,5.79,8,8.68,12C570.78,992.61,570.81,992.69,570.88,992.8Z" transform="translate(0)"/><rect class="cls-4" x="797.21" y="718.94" width="263.91" height="547.67" transform="translate(1921.94 63.6) rotate(90)"/><g class="cls-5"><g class="cls-29"><ellipse class="cls-7" cx="1202.98" cy="1124.82" rx="288.63" ry="278.17"/><ellipse class="cls-8" cx="1202.98" cy="992.62" rx="153.27" ry="147.72"/></g></g><text class="cls-28" transform="translate(715.98 951.17) scale(1.04 1)">Programas Sociales<tspan class="cls-22"><tspan x="0" y="33.49">Si eres beneficiario consulta</tspan><tspan x="0" y="66.97">aquí</tspan></tspan></text><path class="cls-13" d="M1184.88,992.8l-4.12,5.73c-1.54,2.14-3.07,4.29-4.62,6.42a5.22,5.22,0,0,1-3.11,2.16,2.67,2.67,0,0,1-2.92-1.16,3.16,3.16,0,0,1,.07-3.79c2.17-2.92,4.31-5.85,6.5-8.75a.86.86,0,0,0,0-1.26c-2.27-3-4.47-6-6.75-9a2.48,2.48,0,0,1-.34-2.19c.46-2.34,2.55-3.26,4.65-2a6.22,6.22,0,0,1,1.8,1.58c2.92,4,5.79,8,8.68,12C1184.78,992.61,1184.81,992.69,1184.88,992.8Z" transform="translate(0)"/><rect class="cls-30" x="229" y="181" width="765" height="10"/><rect class="cls-31" x="229" y="181" width="391.5" height="10"/><path class="cls-4" d="M321.41,100.06a13.19,13.19,0,0,1-.82,4.59,10.09,10.09,0,0,1-2.34,3.76,14.33,14.33,0,0,1-4.65,3.11,16.74,16.74,0,0,1-6.39,1.06h-5.6V124h-9V89.05h14.81a23.67,23.67,0,0,1,5.62.57,13.28,13.28,0,0,1,4,1.72,9.41,9.41,0,0,1,3.22,3.54A11.22,11.22,0,0,1,321.41,100.06Zm-9.3.2a4.11,4.11,0,0,0-.8-2.53,4.34,4.34,0,0,0-1.85-1.49,8.51,8.51,0,0,0-2.74-.62c-.89,0-2.08-.06-3.56-.06h-1.55V106h2.58a20.7,20.7,0,0,0,3.78-.28,5.37,5.37,0,0,0,2.5-1.12,4.26,4.26,0,0,0,1.25-1.79A7.25,7.25,0,0,0,312.11,100.26Z" transform="translate(0)"/><path class="cls-4" d="M353,124H327.79V89.05H353V95.8H336.74v6h15.12v6.75H336.74v8.63H353Z" transform="translate(0)"/><path class="cls-4" d="M394.19,124h-11l-9.5-12.8h-4.17V124h-8.95V89.05h15.09a34,34,0,0,1,5.32.35,11.33,11.33,0,0,1,4.17,1.52,9,9,0,0,1,3.13,3,8.63,8.63,0,0,1,1.16,4.67,10.37,10.37,0,0,1-1.79,6.31,13.53,13.53,0,0,1-5.12,4Zm-14-24.22a4.46,4.46,0,0,0-.54-2.25A3.65,3.65,0,0,0,377.76,96a7,7,0,0,0-2.13-.46c-.82,0-1.76-.08-2.84-.08h-3.26v9.4h2.77a26,26,0,0,0,3.61-.21,5.1,5.1,0,0,0,2.43-1,4.69,4.69,0,0,0,1.38-1.61A5.53,5.53,0,0,0,380.15,99.73Z" transform="translate(0)"/><path class="cls-4" d="M426.06,113a10,10,0,0,1-4.37,8.38q-4.37,3.21-11.87,3.22a33.63,33.63,0,0,1-7.56-.76,39.06,39.06,0,0,1-6-1.94v-8.36h1a21,21,0,0,0,6.25,3.42,20.45,20.45,0,0,0,6.64,1.19,19.8,19.8,0,0,0,2.16-.14,8.39,8.39,0,0,0,2.18-.47,5.46,5.46,0,0,0,1.7-1,2.49,2.49,0,0,0,.66-1.88,2.54,2.54,0,0,0-1-2,6.75,6.75,0,0,0-2.85-1.27c-1.31-.32-2.69-.61-4.16-.88a31.61,31.61,0,0,1-4.11-1,12.9,12.9,0,0,1-6.34-3.87,9.52,9.52,0,0,1-1.93-6.09,9.33,9.33,0,0,1,4.37-8q4.37-3.09,11.24-3.09a35.41,35.41,0,0,1,6.81.67,32.32,32.32,0,0,1,5.82,1.68v8h-1A18.54,18.54,0,0,0,418.55,96a18,18,0,0,0-6.25-1.13,16.6,16.6,0,0,0-2.23.15,8.74,8.74,0,0,0-2.15.57,4.15,4.15,0,0,0-1.57,1.07,2.33,2.33,0,0,0-.65,1.63,2.43,2.43,0,0,0,1.05,2.12,11.91,11.91,0,0,0,4,1.35l3.7.77a37.16,37.16,0,0,1,3.8,1,12.7,12.7,0,0,1,5.92,3.58A8.73,8.73,0,0,1,426.06,113Z" transform="translate(0)"/><path class="cls-4" d="M466.16,106.51q0,8.34-4.78,13.25t-13.22,4.91q-8.42,0-13.19-4.91t-4.78-13.25q0-8.42,4.78-13.3t13.19-4.89q8.4,0,13.2,4.89T466.16,106.51Zm-11.93,8.83a10.28,10.28,0,0,0,1.95-3.76,18.32,18.32,0,0,0,.63-5.1,17.33,17.33,0,0,0-.72-5.34,10.41,10.41,0,0,0-1.9-3.56,7.1,7.1,0,0,0-2.76-2,8.57,8.57,0,0,0-3.24-.63,8.43,8.43,0,0,0-3.22.61,7.39,7.39,0,0,0-2.78,2,9.93,9.93,0,0,0-1.91,3.62,17.71,17.71,0,0,0-.74,5.36,17.46,17.46,0,0,0,.71,5.31,10.56,10.56,0,0,0,1.89,3.57,7.3,7.3,0,0,0,2.74,2,8.55,8.55,0,0,0,6.61,0A7.23,7.23,0,0,0,454.23,115.34Z" transform="translate(0)"/><path class="cls-4" d="M504.77,124h-8.68l-14.81-24v24H473V89.05h10.76l12.73,20v-20h8.25Z" transform="translate(0)"/><path class="cls-4" d="M545.92,124h-9.29l-2.43-7.06H521.28L518.85,124h-9.07l12.89-34.9H533ZM532,110.49,527.74,98l-4.29,12.5Z" transform="translate(0)"/><path class="cls-4" d="M578.88,113a10,10,0,0,1-4.38,8.38q-4.37,3.21-11.87,3.22a33.63,33.63,0,0,1-7.56-.76,39.42,39.42,0,0,1-6-1.94v-8.36h1a21.1,21.1,0,0,0,6.25,3.42,20.45,20.45,0,0,0,6.64,1.19,19.8,19.8,0,0,0,2.16-.14,8.39,8.39,0,0,0,2.18-.47,5.46,5.46,0,0,0,1.7-1,2.49,2.49,0,0,0,.67-1.88,2.55,2.55,0,0,0-1-2,6.65,6.65,0,0,0-2.84-1.27c-1.32-.32-2.7-.61-4.16-.88a31.76,31.76,0,0,1-4.12-1,13,13,0,0,1-6.34-3.87,9.52,9.52,0,0,1-1.93-6.09,9.35,9.35,0,0,1,4.37-8q4.38-3.09,11.24-3.09a35.26,35.26,0,0,1,6.81.67,32.32,32.32,0,0,1,5.82,1.68v8h-1A18.4,18.4,0,0,0,571.36,96a18,18,0,0,0-6.24-1.13,16.74,16.74,0,0,0-2.24.15,8.86,8.86,0,0,0-2.15.57,4.23,4.23,0,0,0-1.57,1.07,2.38,2.38,0,0,0-.65,1.63,2.43,2.43,0,0,0,1,2.12,12,12,0,0,0,4,1.35l3.69.77a38,38,0,0,1,3.81,1,12.81,12.81,0,0,1,5.92,3.58A8.78,8.78,0,0,1,578.88,113Z" transform="translate(0)"/><path class="cls-30" d="M691.53,124H666.29V89.05h25.24V95.8H675.24v6h15.12v6.75H675.24v8.63h16.29Z" transform="translate(0)"/><path class="cls-30" d="M735.66,124h-8.95V100.58l-6.47,15.16H714l-6.47-15.16V124h-8.48V89.05h10.45l7.85,17.51,7.83-17.51h10.45Z" transform="translate(0)"/><path class="cls-30" d="M773.37,100.06a13.19,13.19,0,0,1-.82,4.59,10.09,10.09,0,0,1-2.34,3.76,14.33,14.33,0,0,1-4.65,3.11,16.74,16.74,0,0,1-6.39,1.06h-5.6V124h-9V89.05h14.81a23.67,23.67,0,0,1,5.62.57,13.28,13.28,0,0,1,4,1.72,9.33,9.33,0,0,1,3.22,3.54A11.22,11.22,0,0,1,773.37,100.06Zm-9.3.2a4.11,4.11,0,0,0-.8-2.53,4.34,4.34,0,0,0-1.85-1.49,8.51,8.51,0,0,0-2.74-.62c-.89,0-2.08-.06-3.56-.06h-1.55V106h2.58a20.7,20.7,0,0,0,3.78-.28,5.37,5.37,0,0,0,2.5-1.12,4.26,4.26,0,0,0,1.25-1.79A7.25,7.25,0,0,0,764.07,100.26Z" transform="translate(0)"/><path class="cls-30" d="M813.36,124h-11l-9.5-12.8H788.7V124h-9V89.05h15.09a33.89,33.89,0,0,1,5.32.35,11.44,11.44,0,0,1,4.18,1.52,9.09,9.09,0,0,1,3.12,3,8.63,8.63,0,0,1,1.16,4.67,10.37,10.37,0,0,1-1.79,6.31,13.53,13.53,0,0,1-5.12,4Zm-14-24.22a4.46,4.46,0,0,0-.54-2.25A3.65,3.65,0,0,0,796.93,96a7,7,0,0,0-2.13-.46c-.82,0-1.76-.08-2.84-.08H788.7v9.4h2.77a25.88,25.88,0,0,0,3.61-.21,5.18,5.18,0,0,0,2.44-1,4.76,4.76,0,0,0,1.37-1.61A5.38,5.38,0,0,0,799.32,99.73Z" transform="translate(0)"/><path class="cls-30" d="M842.54,124H817.3V89.05h25.24V95.8H826.25v6h15.12v6.75H826.25v8.63h16.29Z" transform="translate(0)"/><path class="cls-30" d="M878,113a10,10,0,0,1-4.37,8.38q-4.36,3.21-11.87,3.22a33.63,33.63,0,0,1-7.56-.76,39.06,39.06,0,0,1-6-1.94v-8.36h1a21,21,0,0,0,6.25,3.42,20.45,20.45,0,0,0,6.64,1.19,19.8,19.8,0,0,0,2.16-.14,8.39,8.39,0,0,0,2.18-.47,5.46,5.46,0,0,0,1.7-1,2.49,2.49,0,0,0,.67-1.88,2.55,2.55,0,0,0-1-2,6.71,6.71,0,0,0-2.84-1.27c-1.32-.32-2.7-.61-4.17-.88a31.61,31.61,0,0,1-4.11-1,12.9,12.9,0,0,1-6.34-3.87,9.52,9.52,0,0,1-1.93-6.09,9.35,9.35,0,0,1,4.37-8q4.37-3.09,11.24-3.09a35.41,35.41,0,0,1,6.81.67,32.32,32.32,0,0,1,5.82,1.68v8h-1A18.54,18.54,0,0,0,870.51,96a18,18,0,0,0-6.24-1.13A16.74,16.74,0,0,0,862,95a8.74,8.74,0,0,0-2.15.57,4.15,4.15,0,0,0-1.57,1.07,2.33,2.33,0,0,0-.65,1.63,2.43,2.43,0,0,0,1.05,2.12,11.9,11.9,0,0,0,4,1.35l3.69.77a38,38,0,0,1,3.81,1,12.72,12.72,0,0,1,5.91,3.58A8.73,8.73,0,0,1,878,113Z" transform="translate(0)"/><path class="cls-30" d="M916.44,124h-9.3l-2.43-7.06H891.8L889.37,124H880.3l12.89-34.9h10.36Zm-13.89-13.46L898.25,98,894,110.49Z" transform="translate(0)"/><path class="cls-30" d="M949.39,113a10,10,0,0,1-4.37,8.38q-4.37,3.21-11.87,3.22a33.63,33.63,0,0,1-7.56-.76,39.55,39.55,0,0,1-6-1.94v-8.36h1a21,21,0,0,0,6.24,3.42,20.51,20.51,0,0,0,6.65,1.19,19.8,19.8,0,0,0,2.16-.14,8.48,8.48,0,0,0,2.18-.47,5.41,5.41,0,0,0,1.69-1,2.45,2.45,0,0,0,.67-1.88,2.54,2.54,0,0,0-1-2,6.75,6.75,0,0,0-2.85-1.27c-1.31-.32-2.7-.61-4.16-.88a31.61,31.61,0,0,1-4.11-1,12.9,12.9,0,0,1-6.34-3.87,9.52,9.52,0,0,1-1.93-6.09,9.33,9.33,0,0,1,4.37-8q4.36-3.09,11.23-3.09a35.26,35.26,0,0,1,6.81.67A32.2,32.2,0,0,1,948,90.76v8h-1A18.54,18.54,0,0,0,941.88,96a18,18,0,0,0-6.25-1.13,16.86,16.86,0,0,0-2.24.15,8.79,8.79,0,0,0-2.14.57,4.15,4.15,0,0,0-1.57,1.07,2.34,2.34,0,0,0-.66,1.63,2.42,2.42,0,0,0,1.06,2.12,11.91,11.91,0,0,0,4,1.35l3.69.77a38,38,0,0,1,3.81,1,12.75,12.75,0,0,1,5.92,3.58A8.78,8.78,0,0,1,949.39,113Z" transform="translate(0)"/></svg>