<?xml version="1.0" encoding="utf-8"?>
<!-- Generator: Adobe Illustrator 23.0.5, SVG Export Plug-In . SVG Version: 6.00 Build 0)  -->
<svg version="1.1" id="Capa_1" xmlns="http://www.w3.org/2000/svg" xmlns:xlink="http://www.w3.org/1999/xlink" x="0px" y="0px"
	 viewBox="0 0 35 35" style="enable-background:new 0 0 35 35;" xml:space="preserve">
<style type="text/css">
	.st0{fill:#008735;}
</style>
<g>
	<g>
		<path class="st0" d="M17.8,0c1,0.4,2.1,0.8,3.1,1.2c3.6,1.3,7.3,2.6,10.9,3.9c0.7,0.2,1,0.7,1,1.4c0.2,2.7,0.4,5.4,0.2,8.1
			c-0.2,3.8-0.9,7.6-2.7,11c-2.2,4.4-5.5,7.5-10.2,9c-0.8,0.2-1.5,0.5-2.3,0.5c-0.8,0-1.6-0.1-2.4-0.3c-3.9-1.1-7-3.3-9.3-6.7
			c-1.9-2.7-3-5.7-3.6-8.9c-0.7-3.8-0.8-7.6-0.4-11.4c0-0.5,0.1-1,0.1-1.4c0-0.5,0.3-0.8,0.8-1c2.6-0.9,5.1-1.9,7.7-2.8
			c2.1-0.8,4.2-1.5,6.3-2.3c0.1,0,0.1-0.1,0.2-0.1C17.4,0,17.6,0,17.8,0z M30.9,10.8c0-0.7-0.1-2.1-0.2-3.5c0-0.2-0.1-0.3-0.3-0.4
			c-4.2-1.5-8.4-3-12.6-4.6c-0.1-0.1-0.3,0-0.5,0c-1.1,0.4-2.2,0.8-3.4,1.2c-3.1,1.1-6.1,2.2-9.2,3.3C4.5,7,4.3,7,4.3,7.3
			C4,10.8,4,14.3,4.5,17.7C5,20.7,5.8,23.5,7.4,26c2.1,3.3,5,5.6,8.8,6.6c0.5,0.1,1,0.3,1.5,0.2c3.1-0.5,5.7-1.9,7.9-4.2
			c2.2-2.3,3.5-5,4.3-8C30.7,17.6,30.9,14.5,30.9,10.8z"/>
		<path class="st0" d="M22,14.8c0.2,0,0.3,0,0.4,0c1,0,1.7,0.7,1.7,1.7c0,1.6,0,3.1,0,4.7c0,0.6,0,1.2,0,1.7c0,1-0.7,1.7-1.7,1.7
			c-3.3,0-6.5,0-9.8,0c-1,0-1.7-0.7-1.7-1.7c0-2.1,0-4.2,0-6.3c0-1.2,0.6-1.9,1.8-1.9c0.1,0,0.1,0,0.2,0c0-0.5,0-1,0-1.4
			c0-0.7,0-1.5,0-2.2c0.2-1.6,1.5-2.9,3.2-2.9c0.8,0,1.6,0,2.4,0c1.9,0,3.3,1.4,3.4,3.3C22,12.6,22,13.7,22,14.8z M19.8,14.8
			c0-1.2,0-2.3,0-3.4c0-0.5-0.5-0.9-1-0.9c-0.8,0-1.6,0-2.3,0c-0.8,0-1.2,0.4-1.2,1.2c0,0.7,0,1.4,0,2.1c0,0.4,0,0.7,0,1.1
			C16.7,14.8,18.2,14.8,19.8,14.8z M16.8,20.9C16.8,20.9,16.8,20.9,16.8,20.9c0,0.2,0,0.5,0,0.7c0,0.9,0,0.9,0.9,0.9
			c0.4,0,0.5-0.1,0.5-0.5c0-0.7,0-1.4,0-2.1c0-0.2,0.1-0.4,0.2-0.5c0.6-0.5,0.6-1.3,0.1-1.9c-0.5-0.6-1.3-0.6-1.9-0.1
			c-0.6,0.5-0.7,1.4-0.2,1.9c0.4,0.3,0.4,0.7,0.4,1.1C16.8,20.5,16.8,20.7,16.8,20.9z"/>
	</g>
</g>
</svg>
